<svg xmlns="http://www.w3.org/2000/svg" xmlns:xlink="http://www.w3.org/1999/xlink" width="512" zoomAndPan="magnify" viewBox="0 0 384 383.999986" height="512" preserveAspectRatio="xMidYMid meet" version="1.0"><defs><clipPath id="55c8aa7ba6"><path d="M 24.859375 0.0859375 L 225 0.0859375 L 225 275 L 24.859375 275 Z M 24.859375 0.0859375 " clip-rule="nonzero"/></clipPath><clipPath id="f21763f119"><path d="M 148 71 L 332.359375 71 L 332.359375 383.839844 L 148 383.839844 Z M 148 71 " clip-rule="nonzero"/></clipPath><clipPath id="9d9a9a592e"><path d="M 237 0.0859375 L 332.359375 0.0859375 L 332.359375 55 L 237 55 Z M 237 0.0859375 " clip-rule="nonzero"/></clipPath></defs><path fill="#3cd689" d="M 132.078125 271.367188 C 129.597656 271.5625 127.09375 271.652344 124.570312 271.652344 C 71.207031 271.652344 27.878906 228.304688 27.878906 174.910156 C 27.878906 121.515625 71.207031 78.164062 124.570312 78.164062 C 127.09375 78.164062 129.597656 78.261719 132.078125 78.449219 L 132.078125 3.324219 L 221.261719 3.324219 L 221.261719 271.652344 L 132.078125 271.652344 Z M 108.335938 234.011719 C 106.613281 234.796875 104.914062 235.507812 103.238281 236.160156 C 86.03125 242.847656 71.4375 242.082031 63.4375 234.085938 C 55.496094 226.140625 54.679688 211.695312 61.207031 194.644531 C 61.414062 194.097656 62.214844 192.246094 63.316406 189.722656 C 63.027344 188.6875 62.757812 187.636719 62.515625 186.582031 C 61.484375 182.03125 60.941406 177.292969 60.941406 172.4375 C 60.941406 163.210938 62.90625 154.441406 66.441406 146.527344 C 76.367188 124.289062 98.667969 108.773438 124.570312 108.773438 C 130.375 108.773438 136 109.554688 141.351562 111.015625 C 144.039062 110.039062 146.113281 109.289062 146.765625 109.042969 C 163.808594 102.507812 178.234375 103.324219 186.175781 111.269531 C 194.175781 119.273438 194.941406 133.875 188.257812 151.089844 C 187.605469 152.769531 186.886719 154.472656 186.101562 156.195312 C 187.472656 161.382812 188.199219 166.824219 188.199219 172.4375 C 188.199219 207.574219 159.6875 236.101562 124.570312 236.101562 C 118.960938 236.101562 113.523438 235.375 108.335938 234.011719 Z M 108.335938 234.011719 " fill-opacity="1" fill-rule="evenodd"/><path fill="#4def9e" d="M 49.371094 196.332031 C 46.792969 188.304688 45.398438 179.746094 45.398438 170.871094 C 45.398438 124.917969 82.679688 87.613281 128.609375 87.613281 C 130.789062 87.613281 132.945312 87.699219 135.082031 87.863281 C 138.824219 88.148438 142.519531 86.859375 145.273438 84.308594 C 148.03125 81.753906 149.597656 78.164062 149.597656 74.410156 L 149.597656 12.777344 C 149.597656 12.777344 211.816406 12.777344 211.816406 12.777344 L 211.816406 254.121094 L 128.609375 254.121094 C 118.144531 254.121094 108.128906 252.1875 98.898438 248.65625 C 103.152344 247.777344 107.582031 246.476562 112.160156 244.699219 C 112.652344 244.503906 113.15625 244.308594 113.664062 244.097656 C 118.496094 245.050781 123.492188 245.550781 128.609375 245.550781 C 171.164062 245.550781 205.71875 210.984375 205.71875 168.398438 C 205.71875 163.277344 205.21875 158.277344 204.265625 153.445312 C 204.46875 152.941406 204.671875 152.441406 204.863281 151.9375 C 213.996094 128.410156 210.679688 108.625 199.75 97.6875 C 188.878906 86.820312 169.304688 83.460938 145.980469 92.40625 C 145.726562 92.496094 145.253906 92.675781 144.609375 92.90625 C 139.449219 91.820312 134.089844 91.242188 128.609375 91.242188 C 97.222656 91.242188 70.195312 110.039062 58.164062 136.984375 C 53.878906 146.585938 51.496094 157.214844 51.496094 168.398438 C 51.496094 173.921875 52.074219 179.304688 53.183594 184.496094 C 52.921875 185.113281 52.742188 185.546875 52.652344 185.777344 C 51.273438 189.390625 50.179688 192.914062 49.371094 196.332031 Z M 49.371094 196.332031 " fill-opacity="1" fill-rule="evenodd"/><path fill="#bfd0d8" d="M 108.335938 234.011719 C 106.613281 234.796875 104.914062 235.507812 103.238281 236.160156 C 86.03125 242.847656 71.4375 242.082031 63.4375 234.085938 C 55.496094 226.140625 54.679688 211.695312 61.207031 194.644531 C 61.414062 194.097656 62.214844 192.246094 63.316406 189.722656 C 64.570312 194.160156 66.285156 198.402344 68.410156 202.386719 C 66.816406 207.492188 66.007812 212.230469 66.105469 216.417969 C 66.210938 220.953125 67.386719 224.792969 70.050781 227.460938 C 72.75 230.15625 76.621094 231.328125 81.214844 231.417969 C 85.445312 231.5 90.234375 230.652344 95.386719 229.019531 C 96.847656 228.554688 98.328125 228.023438 99.851562 227.4375 C 106.914062 224.695312 114.488281 220.625 122.179688 215.398438 C 126.976562 212.15625 131.8125 208.460938 136.601562 204.359375 C 140.078125 201.382812 143.53125 198.191406 146.914062 194.796875 C 147.238281 194.472656 147.558594 194.152344 147.882812 193.820312 C 155.53125 186.0625 162.128906 177.992188 167.507812 170.054688 C 172.722656 162.347656 176.789062 154.773438 179.53125 147.703125 C 180.121094 146.191406 180.65625 144.699219 181.113281 143.238281 C 182.753906 138.078125 183.589844 133.296875 183.515625 129.0625 C 183.425781 124.46875 182.257812 120.59375 179.5625 117.886719 C 176.886719 115.21875 173.058594 114.050781 168.519531 113.9375 C 164.332031 113.839844 159.597656 114.65625 154.496094 116.253906 C 150.984375 114.371094 147.277344 112.8125 143.410156 111.613281 C 142.726562 111.40625 142.039062 111.203125 141.351562 111.015625 C 144.039062 110.039062 146.113281 109.289062 146.765625 109.042969 C 163.808594 102.507812 178.234375 103.324219 186.175781 111.269531 C 194.175781 119.273438 194.941406 133.875 188.257812 151.089844 C 187.605469 152.769531 186.886719 154.472656 186.101562 156.195312 C 183.304688 162.347656 179.664062 168.789062 175.253906 175.300781 C 169.34375 184.03125 162.03125 192.914062 153.53125 201.421875 C 152.625 202.320312 151.71875 203.210938 150.804688 204.089844 C 147.492188 207.28125 144.128906 210.289062 140.75 213.105469 C 136.316406 216.792969 131.859375 220.152344 127.433594 223.148438 C 120.921875 227.5625 114.488281 231.207031 108.335938 234.011719 Z M 108.335938 234.011719 " fill-opacity="1" fill-rule="evenodd"/><path fill="#d9dfe3" d="M 151.828125 109.410156 C 166.40625 104.359375 178.683594 104.953125 185.582031 111.863281 C 192.933594 119.214844 193.132812 132.660156 186.992188 148.476562 C 186.363281 150.101562 185.667969 151.75 184.910156 153.429688 C 182.167969 159.441406 178.609375 165.730469 174.300781 172.09375 C 168.488281 180.683594 161.296875 189.40625 152.9375 197.769531 C 152.046875 198.664062 151.15625 199.539062 150.257812 200.402344 C 146.992188 203.542969 143.6875 206.503906 140.363281 209.269531 C 136.007812 212.894531 131.628906 216.195312 127.28125 219.140625 C 120.914062 223.457031 114.628906 227.015625 108.621094 229.753906 C 106.953125 230.511719 105.304688 231.207031 103.679688 231.835938 C 87.867188 237.984375 74.433594 237.789062 67.085938 230.433594 C 60.179688 223.523438 59.585938 211.238281 64.636719 196.660156 C 65.273438 198.191406 65.96875 199.691406 66.71875 201.160156 C 65.257812 206.160156 64.539062 210.8125 64.636719 214.957031 C 64.761719 220.363281 66.285156 224.875 69.460938 228.050781 C 72.675781 231.257812 77.230469 232.78125 82.6875 232.886719 C 87.207031 232.96875 92.316406 232.089844 97.820312 230.34375 C 99.339844 229.867188 100.882812 229.3125 102.464844 228.703125 C 109.707031 225.886719 117.492188 221.710938 125.394531 216.351562 C 130.269531 213.046875 135.199219 209.285156 140.078125 205.109375 C 143.613281 202.082031 147.117188 198.835938 150.5625 195.386719 C 150.894531 195.058594 151.214844 194.726562 151.546875 194.398438 C 159.328125 186.5 166.039062 178.292969 171.515625 170.203125 C 176.871094 162.296875 181.042969 154.515625 183.851562 147.261719 C 184.46875 145.6875 185.015625 144.136719 185.5 142.613281 C 187.246094 137.113281 188.125 131.992188 188.035156 127.472656 C 187.9375 122.011719 186.414062 117.453125 183.210938 114.246094 C 180.027344 111.058594 175.515625 109.539062 170.121094 109.410156 C 165.972656 109.3125 161.328125 110.03125 156.332031 111.5 C 154.863281 110.746094 153.359375 110.046875 151.828125 109.410156 Z M 151.828125 109.410156 " fill-opacity="1" fill-rule="evenodd"/><path fill="#0078e2" d="M 63.316406 189.722656 C 63.027344 188.6875 62.757812 187.636719 62.515625 186.582031 C 62.515625 186.582031 72.230469 178.082031 78.140625 179.265625 C 84.050781 180.441406 80.210938 174.828125 84.351562 172.4375 C 88.488281 170.046875 84.945312 166.546875 78.140625 161.523438 C 71.347656 156.496094 66.441406 146.527344 66.441406 146.527344 C 76.367188 124.289062 98.667969 108.773438 124.570312 108.773438 C 130.375 108.773438 136 109.554688 141.351562 111.015625 C 142.039062 111.203125 142.726562 111.40625 143.410156 111.613281 C 143.410156 111.613281 138.722656 120.429688 136.355469 123.089844 C 133.992188 125.75 120.105469 130.480469 133.101562 139.054688 C 146.105469 147.628906 143.410156 159.15625 143.410156 159.15625 C 143.410156 159.15625 125.371094 153.835938 124.808594 155.609375 C 124.242188 157.386719 115.371094 155.902344 115.371094 165.070312 C 115.371094 174.238281 116.800781 189.015625 124.808594 191.085938 C 128.921875 192.148438 133.164062 197.980469 136.601562 204.359375 C 131.8125 208.460938 126.976562 212.15625 122.179688 215.398438 C 114.488281 220.625 106.914062 224.695312 99.851562 227.4375 C 98.328125 228.023438 96.847656 228.554688 95.386719 229.019531 C 83.925781 223.082031 74.492188 213.765625 68.410156 202.386719 C 66.285156 198.402344 64.570312 194.160156 63.316406 189.722656 Z M 63.316406 189.722656 " fill-opacity="1" fill-rule="evenodd"/><path fill="#01d0fb" d="M 124.03125 152.101562 C 123.386719 152.28125 121.882812 152.695312 120.808594 153.101562 C 119.109375 153.746094 117.394531 154.742188 116.074219 156.390625 C 114.78125 158.007812 113.8125 160.28125 113.8125 163.628906 C 113.8125 169.445312 114.40625 177.398438 116.667969 183.3125 C 118.488281 188.042969 121.425781 191.496094 125.492188 192.554688 C 126.691406 192.863281 127.84375 193.804688 129.027344 195.027344 C 130.847656 196.910156 132.601562 199.449219 134.210938 202.222656 C 130.128906 205.617188 126.015625 208.714844 121.941406 211.480469 C 114.449219 216.5625 107.078125 220.535156 100.203125 223.203125 C 99.152344 223.605469 98.121094 223.980469 97.101562 224.335938 C 86.675781 218.660156 78.097656 210.011719 72.496094 199.53125 C 70.464844 195.734375 68.832031 191.691406 67.640625 187.472656 C 67.527344 187.066406 67.414062 186.671875 67.308594 186.265625 C 68.605469 185.253906 70.679688 183.746094 72.949219 182.527344 C 75.003906 181.425781 77.207031 180.40625 78.996094 180.765625 C 81.558594 181.273438 83.085938 180.789062 84.058594 180.128906 C 84.957031 179.527344 85.574219 178.6875 85.949219 177.625 C 86.171875 177.003906 86.308594 176.261719 86.441406 175.472656 C 86.546875 174.84375 86.507812 174.050781 87.289062 173.59375 C 88.800781 172.714844 89.679688 171.671875 90.128906 170.625 C 90.683594 169.355469 90.71875 167.976562 90.140625 166.488281 C 89.242188 164.171875 86.066406 161.148438 81.363281 157.671875 C 76.488281 154.066406 72.679688 147.6875 71.214844 145.003906 C 80.953125 124.515625 101.835938 110.332031 126.007812 110.332031 C 130.96875 110.332031 135.792969 110.925781 140.40625 112.058594 C 138.921875 114.6875 136.871094 118.179688 135.550781 119.65625 C 135.28125 119.964844 134.75 120.277344 134.160156 120.675781 C 132.75 121.605469 131.003906 122.707031 129.566406 123.996094 C 127.371094 125.953125 125.933594 128.359375 126.070312 131.042969 C 126.203125 133.558594 127.785156 136.753906 132.894531 140.117188 C 139.925781 144.757812 141.664062 150.355469 142 153.804688 C 138.0625 152.734375 131.941406 151.175781 128.675781 150.875 C 126.742188 150.695312 125.371094 151.082031 124.773438 151.464844 C 124.480469 151.660156 124.234375 151.871094 124.03125 152.101562 Z M 124.03125 152.101562 " fill-opacity="1" fill-rule="evenodd"/><path fill="#4def9e" d="M 68.410156 202.386719 C 66.816406 207.492188 66.007812 212.230469 66.105469 216.417969 C 66.210938 220.953125 67.386719 224.792969 70.050781 227.460938 C 72.75 230.15625 76.621094 231.328125 81.214844 231.417969 C 85.445312 231.5 90.234375 230.652344 95.386719 229.019531 C 83.925781 223.082031 74.492188 213.765625 68.410156 202.386719 Z M 68.410156 202.386719 " fill-opacity="1" fill-rule="evenodd"/><path fill="#4def9e" d="M 68.410156 202.386719 C 66.816406 207.492188 66.007812 212.230469 66.105469 216.417969 C 66.210938 220.953125 67.386719 224.792969 70.050781 227.460938 C 72.75 230.15625 76.621094 231.328125 81.214844 231.417969 C 85.445312 231.5 90.234375 230.652344 95.386719 229.019531 C 83.925781 223.082031 74.492188 213.765625 68.410156 202.386719 Z M 68.410156 202.386719 " fill-opacity="1" fill-rule="evenodd"/><path fill="#4def9e" d="M 181.113281 143.238281 C 182.753906 138.078125 183.589844 133.296875 183.515625 129.0625 C 183.425781 124.46875 182.257812 120.59375 179.5625 117.886719 C 176.886719 115.21875 173.058594 114.050781 168.519531 113.9375 C 164.332031 113.839844 159.597656 114.65625 154.496094 116.253906 C 164.453125 121.574219 172.835938 129.476562 178.746094 139.054688 C 179.582031 140.417969 180.378906 141.8125 181.113281 143.238281 Z M 181.113281 143.238281 " fill-opacity="1" fill-rule="evenodd"/><path fill="#4def9e" d="M 181.113281 143.238281 C 182.753906 138.078125 183.589844 133.296875 183.515625 129.0625 C 183.425781 124.46875 182.257812 120.59375 179.5625 117.886719 C 176.886719 115.21875 173.058594 114.050781 168.519531 113.9375 C 164.332031 113.839844 159.597656 114.65625 154.496094 116.253906 C 164.453125 121.574219 172.835938 129.476562 178.746094 139.054688 C 179.582031 140.417969 180.378906 141.8125 181.113281 143.238281 Z M 181.113281 143.238281 " fill-opacity="1" fill-rule="evenodd"/><path fill="#3cd689" d="M 150.804688 204.089844 C 147.492188 207.28125 144.128906 210.289062 140.75 213.105469 C 141.964844 216.015625 142.886719 218.59375 143.410156 220.355469 C 145.515625 227.453125 147.027344 213.554688 150.113281 209.417969 C 151.164062 208.007812 151.207031 206.164062 150.804688 204.089844 Z M 150.804688 204.089844 " fill-opacity="1" fill-rule="evenodd"/><path fill="#4def9e" d="M 146.0625 213.292969 C 145.972656 213.054688 145.875 212.804688 145.777344 212.558594 C 146.023438 212.347656 146.265625 212.140625 146.511719 211.929688 C 146.355469 212.378906 146.210938 212.835938 146.0625 213.292969 Z M 146.0625 213.292969 " fill-opacity="1" fill-rule="evenodd"/><path fill="#3cd689" d="M 136.601562 204.359375 C 140.078125 201.382812 143.53125 198.191406 146.914062 194.796875 C 147.238281 194.472656 147.558594 194.152344 147.882812 193.820312 C 147.695312 192.882812 147.582031 191.96875 147.582031 191.085938 C 147.582031 184.878906 147.027344 171.277344 150.113281 168.613281 C 153.199219 165.953125 169.746094 155.609375 169.746094 155.609375 C 169.746094 155.609375 180.65625 150.582031 178.746094 139.054688 C 172.835938 129.476562 164.453125 121.574219 154.496094 116.253906 C 150.984375 114.371094 147.277344 112.8125 143.410156 111.613281 C 143.410156 111.613281 138.722656 120.429688 136.355469 123.089844 C 133.992188 125.75 120.105469 130.480469 133.101562 139.054688 C 146.105469 147.628906 143.410156 159.15625 143.410156 159.15625 C 143.410156 159.15625 125.371094 153.835938 124.808594 155.609375 C 124.242188 157.386719 115.371094 155.902344 115.371094 165.070312 C 115.371094 174.238281 116.800781 189.015625 124.808594 191.085938 C 128.921875 192.148438 133.164062 197.980469 136.601562 204.359375 Z M 136.601562 204.359375 " fill-opacity="1" fill-rule="evenodd"/><path fill="#4def9e" d="M 146.121094 191.347656 C 143.71875 193.753906 141.28125 196.054688 138.824219 198.25 C 137.101562 195.410156 135.238281 192.824219 133.335938 190.851562 C 131.265625 188.71875 129.085938 187.285156 126.996094 186.746094 C 124.660156 186.144531 123.304688 183.875 122.261719 181.160156 C 120.25 175.898438 119.804688 168.808594 119.804688 163.628906 C 119.804688 158.4375 124.152344 158.390625 125.964844 157.808594 C 126.71875 157.566406 127.335938 157.238281 127.808594 156.863281 C 128.628906 156.953125 130.277344 157.140625 131.648438 157.425781 C 136.984375 158.519531 144.003906 160.59375 144.003906 160.59375 C 144.789062 160.828125 145.640625 160.722656 146.355469 160.308594 C 147.066406 159.898438 147.574219 159.207031 147.761719 158.398438 C 147.761719 158.398438 151.164062 144.984375 136.1875 135.113281 C 133.605469 133.402344 132.257812 132.152344 132.070312 130.847656 C 131.988281 130.308594 132.292969 129.859375 132.628906 129.429688 C 133.328125 128.546875 134.324219 127.796875 135.304688 127.105469 C 137.289062 125.726562 139.230469 124.542969 140.03125 123.644531 C 141.746094 121.710938 144.632812 116.726562 146.273438 113.804688 C 149.125 114.824219 151.882812 116.042969 154.527344 117.460938 C 163.832031 122.4375 171.695312 129.773438 177.304688 138.671875 C 178.40625 147.578125 169.929688 151.453125 169.929688 151.453125 C 169.816406 151.503906 169.703125 151.5625 169.597656 151.632812 C 169.597656 151.632812 152.734375 162.199219 149.597656 164.914062 C 148.308594 166.015625 147.222656 168.382812 146.691406 171.53125 C 145.769531 176.988281 146.023438 185.179688 146.023438 189.644531 C 146.023438 190.207031 146.0625 190.769531 146.121094 191.347656 Z M 146.121094 191.347656 " fill-opacity="1" fill-rule="evenodd"/><path fill="#0078e2" d="M 186.101562 156.195312 C 187.472656 161.382812 188.199219 166.824219 188.199219 172.4375 C 188.199219 207.574219 159.6875 236.101562 124.570312 236.101562 C 118.960938 236.101562 113.523438 235.375 108.335938 234.011719 C 114.488281 231.207031 120.921875 227.5625 127.433594 223.148438 C 131.859375 220.152344 136.316406 216.792969 140.75 213.105469 C 141.964844 216.015625 142.886719 218.59375 143.410156 220.355469 C 145.515625 227.453125 147.027344 213.554688 150.113281 209.417969 C 151.164062 208.007812 151.207031 206.164062 150.804688 204.089844 C 151.71875 203.210938 152.625 202.320312 153.53125 201.421875 C 162.03125 192.914062 169.34375 184.03125 175.253906 175.300781 C 179.664062 168.789062 183.304688 162.347656 186.101562 156.195312 Z M 186.101562 156.195312 " fill-opacity="1" fill-rule="evenodd"/><path fill="#01d0fb" d="M 186.242188 164.019531 C 186.503906 166.304688 186.640625 168.636719 186.640625 171 C 186.640625 204.480469 159.46875 231.664062 126.007812 231.664062 C 123.648438 231.664062 121.320312 231.53125 119.027344 231.265625 C 122.816406 229.191406 126.675781 226.824219 130.546875 224.199219 C 133.988281 221.867188 137.449219 219.320312 140.902344 216.578125 C 141.351562 217.804688 141.71875 218.890625 141.972656 219.769531 C 142.832031 222.671875 144.347656 223.5625 145.148438 223.78125 C 146.367188 224.117188 147.875 223.898438 149.082031 222.207031 C 149.734375 221.289062 150.472656 219.289062 151.191406 216.972656 C 151.996094 214.402344 152.804688 211.308594 153.949219 209.769531 C 155.1875 208.121094 155.613281 206.066406 155.417969 203.753906 C 155.980469 203.207031 156.535156 202.65625 157.089844 202.097656 C 165.734375 193.445312 173.15625 184.421875 179.171875 175.546875 C 181.800781 171.664062 184.160156 167.804688 186.242188 164.019531 Z M 186.242188 164.019531 " fill-opacity="1" fill-rule="evenodd"/><path fill="#3cd689" d="M 62.515625 186.582031 C 61.484375 182.03125 60.941406 177.292969 60.941406 172.4375 C 60.941406 163.210938 62.90625 154.441406 66.441406 146.527344 C 66.441406 146.527344 71.347656 156.496094 78.140625 161.523438 C 84.945312 166.546875 88.488281 170.046875 84.351562 172.4375 C 80.210938 174.828125 84.050781 180.441406 78.140625 179.265625 C 72.230469 178.082031 62.515625 186.582031 62.515625 186.582031 Z M 62.515625 186.582031 " fill-opacity="1" fill-rule="evenodd"/><path fill="#4def9e" d="M 80.449219 174.925781 C 80.351562 174.917969 80.261719 174.902344 80.171875 174.882812 C 77.878906 174.425781 75.125 174.972656 72.417969 176.125 C 70.121094 177.113281 67.84375 178.523438 66.007812 179.796875 C 65.585938 176.925781 65.378906 173.988281 65.378906 171 C 65.378906 164.34375 66.449219 157.933594 68.433594 151.9375 C 70.6875 155.371094 73.96875 159.660156 77.796875 162.492188 C 79.109375 163.457031 80.292969 164.371094 81.316406 165.226562 C 82.082031 165.855469 82.75 166.457031 83.3125 167.035156 C 83.699219 167.429688 84.113281 168.007812 84.351562 168.359375 C 84.328125 168.375 84.308594 168.390625 84.292969 168.40625 C 82.226562 169.597656 81.324219 171.246094 80.855469 172.953125 C 80.6875 173.53125 80.589844 174.125 80.496094 174.679688 C 80.480469 174.753906 80.464844 174.84375 80.449219 174.925781 Z M 80.449219 174.925781 " fill-opacity="1" fill-rule="evenodd"/><path fill="#0078e2" d="M 147.882812 193.820312 C 155.53125 186.0625 162.128906 177.992188 167.507812 170.054688 C 172.722656 162.347656 176.789062 154.773438 179.53125 147.703125 C 180.121094 146.191406 180.65625 144.699219 181.113281 143.238281 C 180.378906 141.8125 179.582031 140.417969 178.746094 139.054688 C 180.65625 150.582031 169.746094 155.609375 169.746094 155.609375 C 169.746094 155.609375 153.199219 165.953125 150.113281 168.613281 C 147.027344 171.277344 147.582031 184.878906 147.582031 191.085938 C 147.582031 191.96875 147.695312 192.882812 147.882812 193.820312 Z M 147.882812 193.820312 " fill-opacity="1" fill-rule="evenodd"/><path fill="#01d0fb" d="M 150.542969 186.65625 C 150.519531 183.367188 150.542969 179.496094 150.871094 176.183594 C 151.019531 174.6875 151.230469 173.316406 151.546875 172.207031 C 151.710938 171.628906 151.785156 171.132812 152.070312 170.886719 C 154.945312 168.414062 169.742188 159.148438 171.214844 158.226562 C 171.238281 158.21875 171.261719 158.203125 171.285156 158.1875 C 169.441406 161.53125 167.351562 164.933594 165.027344 168.367188 C 160.902344 174.460938 156.046875 180.621094 150.542969 186.65625 Z M 150.542969 186.65625 " fill-opacity="1" fill-rule="evenodd"/><path fill="#3cd689" d="M 329.414062 291.609375 C 329.414062 340.851562 289.460938 380.839844 240.238281 380.839844 C 191.015625 380.839844 151.050781 340.851562 151.050781 291.609375 L 240.238281 291.609375 L 240.238281 74.402344 L 329.414062 74.402344 Z M 329.414062 291.609375 " fill-opacity="1" fill-rule="evenodd"/><path fill="#4def9e" d="M 319.96875 287.570312 C 319.96875 329.371094 286.050781 363.308594 244.273438 363.308594 C 207.097656 363.308594 176.136719 336.429688 169.769531 301.0625 C 169.769531 301.0625 244.273438 301.0625 244.273438 301.0625 C 251.71875 301.0625 257.757812 295.019531 257.757812 287.570312 L 257.757812 83.851562 L 319.96875 83.851562 Z M 319.96875 287.570312 " fill-opacity="1" fill-rule="evenodd"/><path fill="#3cd689" d="M 240.238281 3.085938 L 329.417969 3.085938 L 329.417969 51.585938 L 240.238281 51.585938 Z M 240.238281 3.085938 " fill-opacity="1" fill-rule="evenodd"/><path fill="#4def9e" d="M 257.757812 12.535156 L 319.96875 12.535156 L 319.96875 34.054688 L 257.757812 34.054688 Z M 257.757812 12.535156 " fill-opacity="1" fill-rule="evenodd"/><g clip-path="url(#55c8aa7ba6)"><path fill="#004787" d="M 221.253906 274.652344 L 124.566406 274.652344 C 69.546875 274.652344 24.871094 229.949219 24.871094 174.898438 C 24.871094 119.847656 69.546875 75.160156 124.566406 75.160156 C 126.074219 75.160156 127.582031 75.195312 129.082031 75.261719 L 129.082031 3.320312 C 129.082031 1.671875 130.417969 0.324219 132.074219 0.324219 L 221.253906 0.324219 C 222.914062 0.324219 224.25 1.671875 224.25 3.320312 L 224.25 271.65625 C 224.25 273.300781 222.914062 274.652344 221.253906 274.652344 Z M 124.566406 268.660156 L 132.074219 268.660156 C 132.074219 268.660156 218.257812 268.660156 218.257812 268.660156 L 218.257812 6.316406 L 135.070312 6.316406 L 135.070312 78.445312 C 135.070312 79.285156 134.722656 80.082031 134.101562 80.644531 C 133.492188 81.210938 132.675781 81.496094 131.84375 81.429688 C 129.4375 81.253906 127.007812 81.152344 124.566406 81.152344 C 72.851562 81.152344 30.871094 123.167969 30.871094 174.898438 C 30.871094 226.640625 72.851562 268.660156 124.566406 268.660156 Z M 124.566406 268.660156 " fill-opacity="1" fill-rule="evenodd"/></g><g clip-path="url(#f21763f119)"><path fill="#004787" d="M 332.402344 291.605469 C 332.402344 342.507812 291.101562 383.832031 240.230469 383.832031 C 189.34375 383.832031 148.042969 342.507812 148.042969 291.605469 C 148.042969 289.945312 149.390625 288.609375 151.039062 288.609375 L 237.234375 288.609375 L 237.234375 74.402344 C 237.234375 72.742188 238.570312 71.394531 240.230469 71.394531 L 329.40625 71.394531 C 331.066406 71.394531 332.402344 72.742188 332.402344 74.402344 Z M 326.414062 291.605469 L 326.414062 77.398438 L 243.222656 77.398438 L 243.222656 291.605469 C 243.222656 293.253906 241.875 294.601562 240.230469 294.601562 L 154.089844 294.601562 C 155.667969 340.8125 193.664062 377.839844 240.230469 377.839844 C 287.796875 377.839844 326.414062 339.199219 326.414062 291.605469 Z M 326.414062 291.605469 " fill-opacity="1" fill-rule="evenodd"/></g><path fill="#004787" d="M 183.210938 156.964844 C 182.785156 155.363281 183.746094 153.722656 185.34375 153.304688 C 186.945312 152.878906 188.585938 153.835938 189.003906 155.441406 C 190.429688 160.867188 191.199219 166.566406 191.199219 172.441406 C 191.199219 209.234375 161.339844 239.105469 124.574219 239.105469 C 118.699219 239.105469 113 238.34375 107.574219 236.914062 C 105.976562 236.492188 105.023438 234.847656 105.441406 233.25 C 105.863281 231.648438 107.507812 230.691406 109.105469 231.113281 C 114.039062 232.414062 119.222656 233.109375 124.574219 233.109375 C 158.035156 233.109375 185.199219 205.921875 185.199219 172.441406 C 185.199219 167.09375 184.507812 161.902344 183.210938 156.964844 Z M 96.765625 226.355469 C 98.234375 227.117188 98.808594 228.925781 98.046875 230.398438 C 97.285156 231.867188 95.476562 232.441406 94.007812 231.679688 C 82.011719 225.46875 72.136719 215.714844 65.773438 203.804688 C 63.542969 199.625 61.746094 195.1875 60.4375 190.539062 C 60.128906 189.453125 59.851562 188.351562 59.597656 187.246094 C 58.515625 182.484375 57.945312 177.53125 57.945312 172.441406 C 57.945312 162.785156 60.003906 153.597656 63.703125 145.308594 C 74.097656 122.023438 97.453125 105.777344 124.574219 105.777344 C 130.652344 105.777344 136.542969 106.59375 142.144531 108.125 C 142.867188 108.320312 143.582031 108.53125 144.296875 108.757812 C 148.347656 110.007812 152.234375 111.644531 155.910156 113.609375 C 166.335938 119.1875 175.109375 127.453125 181.300781 137.484375 C 182.179688 138.90625 183.003906 140.371094 183.777344 141.863281 C 184.539062 143.335938 183.960938 145.144531 182.496094 145.90625 C 181.027344 146.664062 179.21875 146.089844 178.457031 144.617188 C 177.753906 143.257812 176.996094 141.925781 176.195312 140.632812 C 170.5625 131.503906 162.582031 123.976562 153.089844 118.898438 C 149.742188 117.109375 146.207031 115.621094 142.523438 114.480469 C 141.875 114.28125 141.222656 114.085938 140.5625 113.910156 C 135.46875 112.515625 130.105469 111.773438 124.574219 111.773438 C 99.894531 111.773438 78.636719 126.558594 69.175781 147.753906 C 65.808594 155.292969 63.941406 163.652344 63.941406 172.441406 C 63.941406 177.074219 64.453125 181.582031 65.441406 185.914062 C 65.667969 186.925781 65.925781 187.921875 66.203125 188.910156 C 67.394531 193.140625 69.03125 197.179688 71.058594 200.972656 C 76.855469 211.816406 85.839844 220.703125 96.765625 226.355469 Z M 96.765625 226.355469 " fill-opacity="1" fill-rule="evenodd"/><path fill="#004787" d="M 65.558594 201.496094 C 66.054688 199.914062 67.738281 199.03125 69.3125 199.53125 C 70.890625 200.023438 71.769531 201.707031 71.277344 203.289062 C 69.789062 208.039062 69.011719 212.445312 69.105469 216.347656 C 69.1875 220.03125 70.011719 223.175781 72.179688 225.34375 C 74.367188 227.53125 77.554688 228.347656 81.277344 228.421875 C 85.222656 228.5 89.679688 227.6875 94.480469 226.160156 C 95.882812 225.714844 97.3125 225.210938 98.769531 224.640625 C 105.644531 221.96875 113.011719 218.003906 120.503906 212.925781 C 125.207031 209.734375 129.953125 206.105469 134.65625 202.082031 C 138.074219 199.152344 141.46875 196.015625 144.804688 192.679688 C 145.121094 192.359375 145.4375 192.042969 145.75 191.726562 C 153.261719 184.09375 159.746094 176.171875 165.03125 168.371094 C 170.109375 160.871094 174.078125 153.496094 176.742188 146.621094 C 177.3125 145.164062 177.816406 143.734375 178.261719 142.332031 C 179.792969 137.523438 180.597656 133.070312 180.519531 129.121094 C 180.449219 125.394531 179.632812 122.207031 177.441406 120.015625 C 175.277344 117.851562 172.132812 117.027344 168.457031 116.941406 C 164.554688 116.847656 160.148438 117.625 155.402344 119.113281 C 153.820312 119.609375 152.136719 118.730469 151.644531 117.148438 C 151.152344 115.566406 152.027344 113.890625 153.609375 113.394531 C 159.0625 111.6875 164.121094 110.839844 168.597656 110.941406 C 173.996094 111.070312 178.503906 112.59375 181.683594 115.773438 C 184.890625 118.984375 186.410156 123.542969 186.515625 129.003906 C 186.597656 133.527344 185.722656 138.640625 183.972656 144.148438 C 183.496094 145.664062 182.945312 147.214844 182.332031 148.792969 C 179.515625 156.046875 175.347656 163.828125 169.992188 171.734375 C 164.519531 179.820312 157.800781 188.03125 150.023438 195.929688 C 149.695312 196.261719 149.367188 196.589844 149.039062 196.917969 C 145.59375 200.367188 142.085938 203.609375 138.554688 206.636719 C 133.675781 210.816406 128.746094 214.578125 123.867188 217.886719 C 115.964844 223.246094 108.1875 227.414062 100.9375 230.234375 C 99.363281 230.84375 97.8125 231.398438 96.296875 231.878906 C 90.792969 233.625 85.679688 234.503906 81.160156 234.417969 C 75.703125 234.316406 71.144531 232.792969 67.9375 229.585938 C 64.761719 226.40625 63.238281 221.894531 63.113281 216.488281 C 63.007812 212.011719 63.851562 206.949219 65.558594 201.496094 Z M 142.371094 113.835938 C 140.816406 114.398438 139.097656 113.589844 138.535156 112.035156 C 137.976562 110.476562 138.78125 108.757812 140.335938 108.195312 C 143 107.238281 145.054688 106.488281 145.699219 106.242188 C 164.132812 99.175781 179.714844 100.558594 188.300781 109.152344 C 196.949219 117.804688 198.28125 133.566406 191.054688 152.183594 C 190.382812 153.910156 189.644531 155.664062 188.839844 157.441406 C 185.976562 163.734375 182.25 170.328125 177.738281 176.988281 C 171.726562 185.867188 164.300781 194.894531 155.660156 203.539062 C 154.738281 204.460938 153.8125 205.367188 152.890625 206.253906 C 149.519531 209.496094 146.101562 212.554688 142.671875 215.410156 C 138.160156 219.164062 133.617188 222.585938 129.117188 225.636719 C 122.457031 230.152344 115.871094 233.878906 109.585938 236.738281 C 107.804688 237.550781 106.050781 238.289062 104.324219 238.960938 C 85.722656 246.191406 69.96875 244.851562 61.324219 236.203125 C 52.738281 227.609375 51.351562 212.019531 58.410156 193.578125 C 58.628906 193.011719 59.445312 191.117188 60.578125 188.527344 C 61.238281 187.011719 63.007812 186.3125 64.519531 186.976562 C 66.035156 187.640625 66.730469 189.410156 66.070312 190.925781 C 64.992188 193.386719 64.214844 195.183594 64.007812 195.722656 C 58.011719 211.382812 58.269531 224.671875 65.558594 231.964844 C 72.90625 239.320312 86.34375 239.515625 102.15625 233.371094 C 103.777344 232.742188 105.429688 232.042969 107.097656 231.28125 C 113.109375 228.546875 119.390625 224.988281 125.753906 220.675781 C 130.101562 217.726562 134.484375 214.429688 138.839844 210.800781 C 142.160156 208.035156 145.472656 205.074219 148.734375 201.933594 C 149.636719 201.070312 150.527344 200.191406 151.417969 199.296875 C 159.777344 190.9375 166.964844 182.207031 172.777344 173.625 C 177.089844 167.257812 180.644531 160.96875 183.378906 154.957031 C 184.140625 153.289062 184.835938 151.632812 185.46875 150.011719 C 191.609375 134.191406 191.410156 120.746094 184.0625 113.394531 C 176.769531 106.097656 163.492188 105.84375 147.839844 111.84375 C 147.1875 112.09375 145.089844 112.855469 142.371094 113.835938 Z M 142.371094 113.835938 " fill-opacity="1" fill-rule="evenodd"/><path fill="#004787" d="M 122.613281 153.550781 C 122.8125 153.316406 123.0625 153.101562 123.351562 152.914062 C 123.953125 152.53125 125.324219 152.136719 127.253906 152.320312 C 130.523438 152.617188 136.632812 154.175781 140.578125 155.253906 C 140.242188 151.796875 138.503906 146.207031 131.46875 141.558594 C 126.363281 138.191406 124.78125 135.011719 124.652344 132.488281 C 124.515625 129.804688 125.945312 127.402344 128.144531 125.441406 C 129.582031 124.152344 131.324219 123.042969 132.730469 122.113281 C 133.332031 121.71875 133.855469 121.414062 134.128906 121.101562 C 136.371094 118.578125 140.777344 110.210938 140.777344 110.210938 C 141.558594 108.75 143.371094 108.195312 144.835938 108.972656 C 146.289062 109.753906 146.84375 111.570312 146.070312 113.03125 C 146.070312 113.03125 141.101562 122.28125 138.609375 125.085938 C 137.808594 125.996094 135.863281 127.167969 133.878906 128.550781 C 132.898438 129.242188 131.902344 129.988281 131.207031 130.871094 C 130.867188 131.304688 130.5625 131.75 130.644531 132.285156 C 130.835938 133.597656 132.183594 134.851562 134.769531 136.554688 C 149.734375 146.429688 146.34375 159.851562 146.34375 159.851562 C 146.152344 160.644531 145.644531 161.335938 144.929688 161.753906 C 144.214844 162.171875 143.363281 162.269531 142.578125 162.035156 C 142.578125 162.035156 135.558594 159.964844 130.226562 158.871094 C 128.859375 158.589844 127.207031 158.394531 126.386719 158.308594 C 125.914062 158.683594 125.300781 159.015625 124.539062 159.253906 C 122.730469 159.835938 118.386719 159.882812 118.386719 165.074219 C 118.386719 170.257812 118.828125 177.34375 120.84375 182.609375 C 121.878906 185.316406 123.238281 187.589844 125.574219 188.195312 C 127.664062 188.730469 129.839844 190.164062 131.910156 192.300781 C 134.523438 194.992188 137.050781 198.851562 139.253906 202.941406 C 140.039062 204.394531 139.492188 206.21875 138.039062 207 C 136.585938 207.785156 134.761719 207.238281 133.976562 205.785156 C 132.054688 202.21875 129.878906 198.824219 127.605469 196.472656 C 126.425781 195.25 125.269531 194.308594 124.074219 193.996094 C 120 192.941406 117.0625 189.488281 115.246094 184.753906 C 112.980469 178.847656 112.394531 170.890625 112.394531 165.074219 C 112.394531 161.722656 113.359375 159.457031 114.652344 157.832031 C 115.96875 156.1875 117.6875 155.191406 119.390625 154.546875 C 120.460938 154.144531 121.960938 153.726562 122.613281 153.550781 Z M 144.640625 214.738281 C 145.515625 211.988281 146.554688 209.207031 147.726562 207.632812 C 148.304688 206.855469 148.105469 205.808594 147.878906 204.667969 C 147.566406 203.035156 148.632812 201.46875 150.257812 201.15625 C 151.878906 200.84375 153.453125 201.910156 153.765625 203.535156 C 154.34375 206.53125 154.046875 209.183594 152.527344 211.21875 C 151.378906 212.753906 150.570312 215.847656 149.773438 218.417969 C 149.050781 220.742188 148.3125 222.734375 147.660156 223.648438 C 146.449219 225.34375 144.945312 225.5625 143.726562 225.222656 C 142.921875 225.007812 141.414062 224.117188 140.554688 221.214844 C 140.046875 219.519531 139.164062 217.050781 138 214.261719 C 137.367188 212.734375 138.082031 210.984375 139.605469 210.339844 C 141.132812 209.707031 142.890625 210.429688 143.527344 211.957031 C 143.933594 212.921875 144.304688 213.851562 144.640625 214.738281 Z M 150.835938 193.25 C 151.15625 194.871094 150.105469 196.445312 148.480469 196.769531 C 146.859375 197.089844 145.277344 196.039062 144.957031 194.414062 C 144.730469 193.273438 144.601562 192.164062 144.601562 191.09375 C 144.601562 186.625 144.34375 178.429688 145.269531 172.980469 C 145.796875 169.824219 146.890625 167.460938 148.167969 166.351562 C 151.316406 163.644531 168.175781 153.074219 168.175781 153.074219 C 168.277344 153.003906 168.390625 152.949219 168.503906 152.890625 C 168.503906 152.890625 177.347656 148.855469 175.804688 139.550781 C 175.539062 137.917969 176.640625 136.367188 178.269531 136.105469 C 179.898438 135.832031 181.449219 136.9375 181.714844 138.570312 C 183.820312 151.277344 172.898438 157.382812 171.226562 158.234375 C 169.757812 159.152344 154.953125 168.417969 152.085938 170.890625 C 151.804688 171.132812 151.726562 171.640625 151.558594 172.210938 C 151.242188 173.320312 151.035156 174.691406 150.882812 176.1875 C 150.394531 181.179688 150.59375 187.4375 150.59375 191.09375 C 150.59375 191.785156 150.691406 192.507812 150.835938 193.25 Z M 150.835938 193.25 " fill-opacity="1" fill-rule="evenodd"/><path fill="#004787" d="M 79.023438 176.371094 C 79.039062 176.285156 79.054688 176.195312 79.070312 176.125 C 79.167969 175.5625 79.265625 174.972656 79.425781 174.394531 C 79.898438 172.691406 80.808594 171.035156 82.863281 169.847656 C 82.886719 169.839844 82.910156 169.824219 82.925781 169.808594 C 82.6875 169.453125 82.277344 168.875 81.882812 168.472656 C 81.328125 167.902344 80.65625 167.308594 79.890625 166.664062 C 78.871094 165.8125 77.691406 164.90625 76.382812 163.941406 C 69.082031 158.539062 63.765625 147.859375 63.765625 147.859375 C 63.035156 146.375 63.644531 144.574219 65.128906 143.84375 C 66.617188 143.109375 68.414062 143.722656 69.136719 145.207031 C 69.136719 145.207031 73.652344 154.464844 79.941406 159.121094 C 84.636719 162.589844 87.820312 165.621094 88.71875 167.925781 C 89.296875 169.421875 89.265625 170.796875 88.710938 172.074219 C 88.253906 173.117188 87.386719 174.164062 85.859375 175.039062 C 85.078125 175.488281 85.121094 176.292969 85.015625 176.917969 C 84.878906 177.707031 84.75 178.445312 84.527344 179.074219 C 84.148438 180.132812 83.539062 180.976562 82.636719 181.582031 C 81.660156 182.230469 80.140625 182.722656 77.570312 182.207031 C 75.78125 181.851562 73.578125 182.867188 71.523438 183.976562 C 67.746094 186.007812 64.503906 188.84375 64.503906 188.84375 C 63.257812 189.929688 61.363281 189.800781 60.277344 188.554688 C 59.1875 187.308594 59.316406 185.414062 60.558594 184.328125 C 60.558594 184.328125 65.714844 179.835938 71 177.570312 C 73.699219 176.414062 76.453125 175.867188 78.742188 176.324219 C 78.839844 176.347656 78.9375 176.355469 79.023438 176.371094 Z M 79.023438 176.371094 " fill-opacity="1" fill-rule="evenodd"/><g clip-path="url(#9d9a9a592e)"><path fill="#004787" d="M 332.402344 3.089844 L 332.402344 51.589844 C 332.402344 53.246094 331.0625 54.585938 329.40625 54.585938 L 240.226562 54.585938 C 238.570312 54.585938 237.230469 53.246094 237.230469 51.589844 L 237.230469 3.089844 C 237.230469 1.429688 238.570312 0.09375 240.226562 0.09375 L 329.40625 0.09375 C 331.0625 0.09375 332.402344 1.429688 332.402344 3.089844 Z M 326.410156 6.085938 L 243.21875 6.085938 C 243.21875 6.085938 243.21875 48.59375 243.21875 48.59375 L 326.410156 48.59375 Z M 326.410156 6.085938 " fill-opacity="1" fill-rule="evenodd"/></g></svg>