<svg xmlns="http://www.w3.org/2000/svg" xmlns:xlink="http://www.w3.org/1999/xlink" width="512" zoomAndPan="magnify" viewBox="0 0 384 383.999986" height="512" preserveAspectRatio="xMidYMid meet" version="1.0"><path fill="#4e7896" d="M 143.421875 294.121094 C 143.421875 294.121094 128.808594 303.015625 153.578125 305.558594 C 183.398438 309.363281 199.28125 308.734375 232.285156 302.386719 C 238.933594 306.460938 245.914062 309.847656 253.230469 312.550781 C 178.980469 344.316406 85.007812 310.648438 143.410156 294.121094 Z M 133.917969 252.832031 C 133.917969 252.832031 118.046875 264.902344 142.804688 267.457031 C 175.175781 270.628906 200.566406 271.261719 244.378906 262.378906 C 248.699219 266.765625 253.777344 269.941406 259.609375 271.902344 C 170.105469 298.582031 69.8125 274.445312 133.917969 252.84375 Z M 309.113281 325.234375 C 309.113281 325.234375 319.898438 334.128906 297.054688 341.117188 C 254.523438 353.839844 118.6875 357.644531 80.601562 341.117188 C 67.269531 335.410156 92.660156 327.148438 100.796875 325.875 C 109.054688 323.976562 113.507812 323.976562 113.507812 323.976562 C 98.894531 313.808594 16.390625 344.933594 71.621094 353.816406 C 223.328125 378.589844 348.375 343.019531 309.019531 325.234375 Z M 150.289062 209.628906 C 150.289062 209.628906 81.101562 226.15625 125.53125 231.863281 C 144.574219 234.40625 182.019531 233.765625 216.9375 231.230469 C 245.496094 228.6875 274.078125 223.625 274.078125 223.625 C 274.078125 223.625 263.921875 228.070312 256.9375 232.515625 C 186.488281 250.945312 51.269531 242.679688 89.996094 223.625 C 123 207.742188 150.300781 209.65625 150.300781 209.65625 Z M 274.078125 278.871094 C 345.167969 242.015625 312.167969 206.46875 289.308594 210.902344 C 283.605469 212.175781 281.050781 213.445312 281.050781 213.445312 C 281.050781 213.445312 282.953125 209.644531 287.394531 208.371094 C 332.46875 192.488281 368.015625 256.007812 272.785156 280.773438 C 272.785156 280.773438 273.414062 280.140625 274.054688 278.871094 Z M 157.296875 379.234375 C 225.847656 383.679688 330.59375 376.6875 333.121094 344.28125 C 333.121094 344.28125 328.050781 357 276.632812 366.511719 C 218.230469 377.308594 145.871094 376.023438 103.339844 369.054688 C 103.339844 369.054688 112.226562 376.664062 157.296875 379.222656 Z M 157.296875 379.234375 " fill-opacity="1" fill-rule="nonzero"/><path fill="#f58219" d="M 231.027344 0.0117188 C 231.027344 0.0117188 270.382812 40.027344 193.578125 100.375 C 132.003906 149.285156 179.621094 177.234375 193.578125 209 C 157.394531 176.605469 131.375 148.011719 149.148438 121.347656 C 175.164062 81.949219 246.898438 63.007812 231.027344 0.0117188 Z M 210.828125 182.324219 C 229.242188 203.28125 205.757812 222.339844 205.757812 222.339844 C 205.757812 222.339844 252.730469 198.207031 231.144531 168.339844 C 211.472656 139.761719 196.21875 125.78125 278.746094 78.144531 C 278.746094 78.144531 148.625 110.539062 210.828125 182.324219 Z M 210.828125 182.324219 " fill-opacity="1" fill-rule="nonzero"/></svg>